<?xml version="1.0" encoding="utf-8"?>
<!-- Generator: Adobe Illustrator 28.2.0, SVG Export Plug-In . SVG Version: 6.00 Build 0)  -->
<svg version="1.1" id="Layer_1" xmlns="http://www.w3.org/2000/svg" xmlns:xlink="http://www.w3.org/1999/xlink" x="0px" y="0px"
	 viewBox="0 0 512 512" style="enable-background:new 0 0 512 512;" xml:space="preserve">
<style type="text/css">
	.st0{fill:#FFFFFF;}
</style>
<g>
	<g>
		<path class="st0" d="M419.1,105.8c-4.3,8.6-11.7,15-20.8,18.1c-9.2,3-18.9,2.3-27.5-2l-45-22.5c-3.8-1.9-8.1-2.2-12.2-0.8
			c-4,1.3-7.2,4.1-9.2,7.9l-5.7,11.6l-18-9l5.7-11.4c4.3-8.6,11.6-15,20.8-18.1c9.2-3,18.9-2.3,27.4,1.9l45.1,22.6
			c3.8,1.8,8,2.2,12,0.8c4-1.3,7.3-4.1,9.2-7.9c2.4-4.9,8.5-7.1,13.4-4.5C419.5,94.9,421.5,100.8,419.1,105.8L419.1,105.8z"/>
	</g>
	<g>
		<g>
			<path class="st0" d="M253.3,148c1.2,0.5,2.3,0.9,3.5,1.4c4.1,1.7,8.2,3.5,12.3,5.5c5.9,2.9,11.4,6.2,16.8,9.6
				c1.5,0.9,2.9,1.9,4.3,2.8c1.6,1,3.2,2,4.7,3.1l4.3-8.6c4.7-9.4,0.9-20.9-8.5-25.4l-19.6-9.9c-4.5-2.2-9.7-2.6-14.5-1
				c-4.8,1.6-8.7,5-10.9,9.5l-4.3,8.7c0.6,0.2,1.3,0.5,1.9,0.7C246.6,145.5,249.9,146.7,253.3,148L253.3,148z"/>
			<path class="st0" d="M292.1,193.6C292,193.6,292,193.6,292.1,193.6c-4.7-4-9.8-7.6-15.1-11.1c-5.4-3.5-10.9-6.7-16.8-9.7
				c-11.6-5.7-23.6-10.1-35.5-13c-13.3-3.2-26.7-4.7-39.9-4.7c-62.4,0-120.5,34.8-149.6,92.9c-41.3,82.6-7.7,183.5,75,225
				c82.7,41.3,183.6,7.6,225-75.1C370.3,327.7,352.7,243.7,292.1,193.6L292.1,193.6z M78.7,269.7c-15.7,31.3-16.8,67.7-3,99.9
				c2.2,5.1-0.2,11-5.3,13.2c-1.3,0.5-2.6,0.8-4,0.8c-3.9,0-7.6-2.3-9.2-6.1c-16.1-37.6-14.7-80.2,3.6-116.8c2.5-5,8.5-7,13.5-4.5
				C79.1,258.7,81.1,264.8,78.7,269.7z"/>
		</g>
		<path class="st0" d="M132,429.4c-13.3-6.6-25-15.4-34.8-26.3c-3.7-4.1-10.1-4.4-14.2-0.7s-4.4,10.1-0.7,14.2
			c11.6,12.6,25.2,23,40.6,30.7c1.5,0.7,2.9,1.1,4.5,1.1c3.6,0,7.2-2,9-5.5C138.9,437.9,136.8,431.9,132,429.4z"/>
		<path class="st0" d="M406.3,21.5c-5.5-0.8-10.6,2.9-11.5,8.4l-4.2,27.1c-0.9,5.5,2.9,10.6,8.4,11.5c0.5,0.1,1,0.2,1.6,0.2
			c4.9,0,9.2-3.6,9.9-8.5l4.2-27.1C415.6,27.5,411.8,22.3,406.3,21.5z"/>
		<path class="st0" d="M456.1,43.7c-4.5-3.3-10.8-2.2-14,2.3l-15.6,22c-3.2,4.5-2.2,10.8,2.3,14c1.8,1.2,3.8,1.9,5.8,1.9
			c3.1,0,6.2-1.5,8.1-4.2l15.6-22C461.7,53.1,460.6,46.9,456.1,43.7z"/>
		<path class="st0" d="M493.4,83.5c-2.6-4.9-8.7-6.7-13.6-4.2l-24.2,12.8c-4.9,2.6-6.7,8.7-4.2,13.6c1.8,3.4,5.3,5.4,8.9,5.4
			c1.6,0,3.2-0.4,4.7-1.2L489.2,97C494.1,94.4,495.9,88.4,493.4,83.5z"/>
	</g>
</g>
</svg>
