<?xml version="1.0" encoding="utf-8"?>
<!-- Generator: Adobe Illustrator 28.2.0, SVG Export Plug-In . SVG Version: 6.00 Build 0)  -->
<svg version="1.1" id="Capa_1" xmlns="http://www.w3.org/2000/svg" xmlns:xlink="http://www.w3.org/1999/xlink" x="0px" y="0px"
	 viewBox="0 0 538 538" style="enable-background:new 0 0 538 538;" xml:space="preserve">
<style type="text/css">
	.st0{fill:#FFFFFF;}
</style>
<path class="st0" d="M269,0C120.4,0,0,120.4,0,269s120.4,269,269,269s269-120.3,269-269S417.5,0,269,0z M207.2,260.2h45.1
	c8.3,0,15,6.8,15,15v25c0,8.3-6.8,15-15,15h-45.1h-55h-45.1c-8.3,0-15-6.8-15-15v-25c0-8.3,6.8-15,15-15h45.1H207.2z M425.4,170.4
	c-1.4,11.1-2.1,38.3-2.1,81.6c0,14.5,0.1,36.4,0.3,65.5c0.2,29.2,0.3,51,0.3,65.5c0,2.4-1.1,4.6-3.2,6.6s-4.5,3-7,3
	c-6.1,0-15.1,0.1-27.3,0.2c-12.1,0.1-21.2,0.2-27.3,0.2c-4.7,0-7-2-6.8-6.1l0.2-2.1c1.8-48.2,2.6-77.4,2.6-87.7V241
	c0-3.5-0.8-5.3-2.5-5.3c-2.5,0-6.3,0.8-11.5,2.3c-5.1,1.5-9,2.3-11.7,2.3c-3.9,0-5.9-2.3-5.9-7c0-4.3-0.1-10.7-0.2-19.3
	s-0.2-15.1-0.2-19.5c0-2.5,1.6-4.4,4.7-5.7c18.6-7.7,33.1-18,43.7-31c2.1-2.7,4-4,5.5-4c0.2,0,1,0.1,2.3,0.4
	c4.8,1,11.9,2.6,21.4,4.7c5.1,0.6,12.4,1.8,22.2,3.4c1.8,0.5,2.7,1.9,2.7,4.2C425.8,167.2,425.7,168.5,425.4,170.4z"/>
</svg>
