<?xml version="1.0" encoding="utf-8"?>
<!-- Generator: Adobe Illustrator 28.1.0, SVG Export Plug-In . SVG Version: 6.00 Build 0)  -->
<svg version="1.1" id="Capa_1" xmlns="http://www.w3.org/2000/svg" xmlns:xlink="http://www.w3.org/1999/xlink" x="0px" y="0px"
	 viewBox="0 0 512 512" style="enable-background:new 0 0 512 512;" xml:space="preserve">
<style type="text/css">
	.st0{fill:#FFFFFF;}
</style>
<g>
	<circle class="st0" cx="366" cy="256" r="65"/>
	<circle class="st0" cx="256" cy="447" r="65"/>
	<circle class="st0" cx="146" cy="65" r="65"/>
	<path class="st0" d="M15,291h262.68c-4.31-10.84-6.68-22.65-6.68-35s2.37-24.16,6.68-35H15c-8.28,0-15,6.72-15,15v40
		C0,284.28,6.72,291,15,291z"/>
	<path class="st0" d="M497,221h-42.68c4.31,10.84,6.68,22.65,6.68,35s-2.37,24.16-6.68,35H497c8.28,0,15-6.72,15-15v-40
		C512,227.72,505.28,221,497,221z"/>
	<path class="st0" d="M497,412H344.32c4.31,10.84,6.68,22.65,6.68,35s-2.37,24.16-6.68,35H497c8.28,0,15-6.72,15-15v-40
		C512,418.72,505.28,412,497,412z"/>
	<path class="st0" d="M15,412c-8.28,0-15,6.72-15,15v40c0,8.28,6.72,15,15,15h152.68c-4.31-10.84-6.68-22.65-6.68-35
		s2.37-24.16,6.68-35H15z"/>
	<path class="st0" d="M15,100h42.68C53.37,89.16,51,77.35,51,65s2.37-24.16,6.68-35H15C6.72,30,0,36.72,0,45v40
		C0,93.28,6.72,100,15,100z"/>
	<path class="st0" d="M497,30H234.32c4.31,10.84,6.68,22.65,6.68,35s-2.37,24.16-6.68,35H497c8.28,0,15-6.72,15-15V45
		C512,36.72,505.28,30,497,30z"/>
</g>
</svg>
