<?xml version="1.0" encoding="utf-8"?>
<!-- Generator: Adobe Illustrator 28.3.0, SVG Export Plug-In . SVG Version: 6.00 Build 0)  -->
<svg version="1.1" id="Layer_1" xmlns="http://www.w3.org/2000/svg" xmlns:xlink="http://www.w3.org/1999/xlink" x="0px" y="0px"
	 viewBox="0 0 512 512" style="enable-background:new 0 0 512 512;" xml:space="preserve">
<style type="text/css">
	.st0{fill-rule:evenodd;clip-rule:evenodd;fill:#FFFFFF;}
</style>
<path class="st0" d="M512,155v202.1c0,21.1-17.2,38.3-38.3,38.3h-197c-9.8,0-17.7,8-17.7,17.7V479c0,11.5-6.5,21-17.2,25.2
	c-10.7,4.2-21.9,1.6-29.7-6.9L7.2,274.3c-9.6-10.4-9.6-26.1,0-36.5l204.9-223c5.1-5.6,11.9-8.9,19.5-8.9c3.5,0,6.9,0.7,10.2,2
	c10.8,4.2,17.2,13.6,17.2,25.2v65.8c0,9.8,7.9,17.7,17.7,17.7h197C494.8,116.6,512,133.8,512,155L512,155z"/>
</svg>
