<?xml version="1.0" encoding="utf-8"?>
<!-- Generator: Adobe Illustrator 28.3.0, SVG Export Plug-In . SVG Version: 6.00 Build 0)  -->
<svg version="1.1" id="Calque_1" xmlns="http://www.w3.org/2000/svg" xmlns:xlink="http://www.w3.org/1999/xlink" x="0px" y="0px"
	 viewBox="0 0 512 512" style="enable-background:new 0 0 512 512;" xml:space="preserve">
<style type="text/css">
	.st0{fill:#FFFFFF;}
</style>
<path class="st0" d="M187.3,512L68.7,443.3L0,324.7V187.3L68.7,68.7L187.3,0h137.3l118.7,68.7L512,187.4v137.2l-68.7,118.7
	L324.6,512H187.3z M78.9,428.9l2.9,2.9l108.5,62.6l2,0.9h129l1.5-1.5l107.6-62.1l1.5-1.5l62-107.5l1.5-1.5V190.9l-1.5-1.5
	L433.2,84.2v-1.1l-2.9-2.9l-107.6-62l-1.5-1.5H190.9l-1.5,1.5L84.3,78.9h-5.4v5.3L18.2,189.3l-1.5,1.5v130.3l1.5,1.5l60.7,105.2
	V428.9z"/>
</svg>
