<?xml version="1.0" encoding="utf-8"?>
<!-- Generator: Adobe Illustrator 28.3.0, SVG Export Plug-In . SVG Version: 6.00 Build 0)  -->
<svg version="1.1" xmlns="http://www.w3.org/2000/svg" xmlns:xlink="http://www.w3.org/1999/xlink" x="0px" y="0px"
	 viewBox="0 0 512 512" style="enable-background:new 0 0 512 512;" xml:space="preserve">
<style type="text/css">
	.st0{fill:#FFFFFF;}
	.st1{display:none;}
	.st2{display:inline;}
</style>
<g id="Calque_1">
	<g>
		<path class="st0" d="M443,69L324.5,0.5h-137L69,69L0.5,187.5v137L69,443l118.5,68.5h136.9L443,443l68.5-118.5V187.6L443,69z
			 M481.4,316.3l-0.1,0.1l-60.2,104.4l-0.1,0.1l-0.1,0.1l-104.5,60.3l-0.1,0.1H195.6l-0.2-0.1L91.1,421.1L91,421v-0.1L30.7,316.4
			l-0.1-0.1V195.6l0.1-0.1L91,91.1V91h0.2l104.4-60.3l0.1-0.1h120.7l0.1,0.1l104.4,60.2L421,91v0.1l60.3,104.5l0.1,0.1V316.3z"/>
		<polygon class="st0" points="460.5,201.2 460.5,310.8 405.7,405.7 310.8,460.5 201.2,460.5 106.3,405.7 51.5,310.8 51.5,201.2 
			106.3,106.3 201.2,51.5 310.8,51.5 405.7,106.3 		"/>
	</g>
</g>
<g id="Calque_2" class="st1">
	<g class="st2">
		<polygon class="st0" points="195.5,481.9 195.2,481.7 162.1,462.6 174.1,444.3 201.3,460 310.7,460 337.9,444.3 349.9,462.6 
			316.7,481.7 316.5,481.9 		"/>
	</g>
</g>
</svg>
