<?xml version="1.0" encoding="utf-8"?>
<!-- Generator: Adobe Illustrator 28.2.0, SVG Export Plug-In . SVG Version: 6.00 Build 0)  -->
<svg version="1.1" id="Layer_4" xmlns="http://www.w3.org/2000/svg" xmlns:xlink="http://www.w3.org/1999/xlink" x="0px" y="0px"
	 viewBox="0 0 512 512" style="enable-background:new 0 0 512 512;" xml:space="preserve">
<style type="text/css">
	.st0{fill:#FFFFFF;}
</style>
<g id="Glyph">
	<g id="Hammer">
		<path class="st0" d="M174.3,264.8L48.9,390.3c-8.3,8.3-8.3,21.8,0,30.2l42.7,42.7c8.3,8.3,21.8,8.3,30.2,0l125.4-125.4
			L174.3,264.8z"/>
		<path class="st0" d="M341.3,362.7c-5.7,0-11.1-2.2-15.1-6.3L155.6,185.7c-8.3-8.3-8.3-21.8,0-30.2L262.3,48.9
			c8.3-8.3,21.8-8.3,30.2,0l170.7,170.7c8.3,8.3,8.3,21.8,0,30.2L356.4,356.4C352.4,360.4,347,362.7,341.3,362.7z"/>
	</g>
</g>
</svg>
