<?xml version="1.0" encoding="utf-8"?>
<!-- Generator: Adobe Illustrator 28.1.0, SVG Export Plug-In . SVG Version: 6.00 Build 0)  -->
<svg version="1.1" id="Capa_1" xmlns="http://www.w3.org/2000/svg" xmlns:xlink="http://www.w3.org/1999/xlink" x="0px" y="0px"
	 viewBox="0 0 512 512" style="enable-background:new 0 0 512 512;" xml:space="preserve">
<style type="text/css">
	.st0{fill:#FFFFFF;}
</style>
<g>
	<path class="st0" d="M311,186H201c-8.28,0-15,6.72-15,15v110c0,8.28,6.72,15,15,15h110c8.28,0,15-6.72,15-15V201
		C326,192.72,319.28,186,311,186z"/>
	<path class="st0" d="M497,186H387c-8.28,0-15,6.72-15,15v110c0,8.28,6.72,15,15,15h110c8.28,0,15-6.72,15-15V201
		C512,192.72,505.28,186,497,186z"/>
	<path class="st0" d="M125,186H15c-8.28,0-15,6.72-15,15v110c0,8.28,6.72,15,15,15h110c8.28,0,15-6.72,15-15V201
		C140,192.72,133.28,186,125,186z"/>
	<path class="st0" d="M311,372H201c-8.28,0-15,6.72-15,15v110c0,8.28,6.72,15,15,15h110c8.28,0,15-6.72,15-15V387
		C326,378.72,319.28,372,311,372z"/>
	<path class="st0" d="M497,372H387c-8.28,0-15,6.72-15,15v110c0,8.28,6.72,15,15,15h110c8.28,0,15-6.72,15-15V387
		C512,378.72,505.28,372,497,372z"/>
	<path class="st0" d="M125,372H15c-8.28,0-15,6.72-15,15v110c0,8.28,6.72,15,15,15h110c8.28,0,15-6.72,15-15V387
		C140,378.72,133.28,372,125,372z"/>
	<path class="st0" d="M311,0H201c-8.28,0-15,6.72-15,15v110c0,8.28,6.72,15,15,15h110c8.28,0,15-6.72,15-15V15
		C326,6.72,319.28,0,311,0z"/>
	<path class="st0" d="M497,0H387c-8.28,0-15,6.72-15,15v110c0,8.28,6.72,15,15,15h110c8.28,0,15-6.72,15-15V15
		C512,6.72,505.28,0,497,0z"/>
	<path class="st0" d="M125,0H15C6.72,0,0,6.72,0,15v110c0,8.28,6.72,15,15,15h110c8.28,0,15-6.72,15-15V15C140,6.72,133.28,0,125,0z
		"/>
</g>
</svg>
