<?xml version="1.0" encoding="utf-8"?>
<!-- Generator: Adobe Illustrator 28.1.0, SVG Export Plug-In . SVG Version: 6.00 Build 0)  -->
<svg version="1.1" id="Capa_1" xmlns="http://www.w3.org/2000/svg" xmlns:xlink="http://www.w3.org/1999/xlink" x="0px" y="0px"
	 viewBox="0 0 512 512" style="enable-background:new 0 0 512 512;" xml:space="preserve">
<style type="text/css">
	.st0{fill:#FFFFFF;}
</style>
<g>
	<path class="st0" d="M116.23,297c-4.14-13.69-6.23-27.82-6.23-42c0-79.95,65.05-145,145-145c0.33,0,0.67,0.01,1,0.01
		c17.02,0.12,33.95,3.28,49.86,9.27l-15.51,15.51c-9.3,9.3-2.99,25.2,10.15,25.6l123.55,3.73c8.54,0.26,15.57-6.66,15.45-15.2
		L437.8,23.36c-0.18-13.26-16.23-19.78-25.61-10.4l-24.48,24.48C347.96,13.08,302.7,0.19,256,0.01c-0.33,0-0.67-0.01-1-0.01
		C186.89,0,122.85,26.53,74.69,74.69S0,186.89,0,255c0,15.39,1.45,31.06,4.32,46.57v0c1.28,6.95,7.24,12.05,14.3,12.27l82.81,2.49
		C111.67,316.65,119.2,306.82,116.23,297L116.23,297z"/>
	<path class="st0" d="M507.68,210.43c-1.28-6.95-7.24-12.06-14.3-12.27l-82.81-2.49c-10.25-0.31-17.78,9.52-14.81,19.33
		c4.14,13.68,6.23,27.82,6.23,42c0,79.95-65.05,145-145,145c-0.33,0-0.67-0.01-1-0.01c-17.02-0.12-33.95-3.28-49.86-9.27
		l15.51-15.51c9.3-9.3,2.99-25.2-10.15-25.6l-123.55-3.73c-8.54-0.26-15.57,6.66-15.45,15.2l1.72,125.56
		c0.18,13.26,16.23,19.78,25.6,10.4l24.47-24.48c39.76,24.36,85.02,37.24,131.71,37.42c0.33,0,0.67,0.01,1,0.01
		c68.11,0,132.15-26.52,180.31-74.69S512,325.11,512,257C512,241.61,510.55,225.94,507.68,210.43L507.68,210.43z"/>
</g>
</svg>
