<?xml version="1.0" encoding="utf-8"?>
<!-- Generator: Adobe Illustrator 28.3.0, SVG Export Plug-In . SVG Version: 6.00 Build 0)  -->
<svg version="1.1" id="Capa_1" xmlns="http://www.w3.org/2000/svg" xmlns:xlink="http://www.w3.org/1999/xlink" x="0px" y="0px"
	 viewBox="0 0 480 480" style="enable-background:new 0 0 480 480;" xml:space="preserve">
<style type="text/css">
	.st0{fill:#FFFFFF;}
</style>
<path class="st0" d="M288,32v203.8l-138.8-126L262,19.5c4.8-3.9,11.3-4.6,16.9-1.9C284.5,20.3,288,25.9,288,32z"/>
<path class="st0" d="M109.7,141.4L288,303.3V448c0,6.1-3.6,11.7-9.1,14.4c-2.2,1.1-4.5,1.6-6.9,1.6c-3.5,0-7.1-1.2-10-3.5L106.4,336
	H32c-17.6,0-32-14.3-32-32V176c0-17.6,14.4-32,32-32h74.4L109.7,141.4z"/>
<path class="st0" d="M465.2,480c-3.8,0-7.6-1.3-10.5-3.9L4.3,70.3c-5.8-5.2-5.8-13.7,0-18.9c5.8-5.2,15.2-5.2,21,0l450.4,405.8
	c5.8,5.2,5.8,13.7,0,18.9C472.8,478.7,469,480,465.2,480z"/>
</svg>
