<?xml version="1.0" encoding="utf-8"?>
<!-- Generator: Adobe Illustrator 28.3.0, SVG Export Plug-In . SVG Version: 6.00 Build 0)  -->
<svg version="1.1" id="Layer_1" xmlns="http://www.w3.org/2000/svg" xmlns:xlink="http://www.w3.org/1999/xlink" x="0px" y="0px"
	 viewBox="0 0 445.2 445.2" style="enable-background:new 0 0 445.2 445.2;" xml:space="preserve">
<style type="text/css">
	.st0{fill:#FCD09F;}
	.st1{fill:#1EA6C6;}
	.st2{fill:#E2B991;}
</style>
<g>
	
		<image style="overflow:visible;opacity:0.4;" width="285" height="464" xlink:href="914127B2.png"  transform="matrix(1 0 0 1 85 -4.823)">
	</image>
	<g>
		<g>
			<path class="st0" d="M355.5,237.8V369c0,5.3-0.4,10.6-1.1,15.9c-0.8,5.3-1.9,10.5-3.4,15.6c-2.1,7.3-3.7,14.6-4.8,22.1
				c-1.1,7.5-1.6,15-1.6,22.6H190.1v-23.8c0-3.8-1.1-7.5-3.1-10.6c-2-3.1-4.8-5.7-8.3-7.3c-3.4-1.6-7.7-4.3-11.8-7
				c-7.6-5-13.6-12.1-17.5-20.3l-25.9-55.3c-4.4-9.5-2.9-20.6,3.9-28.6l8.9-10.4c5.1-6,7.5-13.9,6.4-21.8c-0.1-0.9-0.2-1.9-0.2-2.8
				c0-11,8.9-20.2,20.2-20.2c1,0,2,0,3,0.1c3.8,0.3,7.4,1.3,10.7,2.8V105.6c0-6.4,2.6-12.2,6.8-16.4c4.2-4.2,10-6.8,16.4-6.8
				c12.8,0,23.1,10.4,23.1,23.2v105.8c0-6.4,2.6-12.2,6.8-16.4c4.2-4.2,10-6.8,16.4-6.8c12.8,0,23.1,10.4,23.1,23.2v16
				c0-6.4,2.6-12.2,6.8-16.4s10-6.8,16.4-6.8c12.8,0,23.2,10.4,23.2,23.1v10.9c0-11,8.7-20.3,19.7-20.5c5.7-0.1,10.8,2.2,14.5,5.9
				C353.2,227.3,355.5,232.3,355.5,237.8z"/>
			<rect x="193.1" class="st1" width="13" height="48.8"/>
			
				<rect x="235.1" y="43.2" transform="matrix(0.7071 -0.7071 0.7071 0.7071 40.8661 198.0551)" class="st1" width="48.8" height="13"/>
			<rect x="259.6" y="103.4" class="st1" width="48.8" height="13"/>
			<rect x="89.7" y="102.3" class="st1" width="48.8" height="13"/>
			
				<rect x="132.9" y="24.5" transform="matrix(0.7071 -0.7071 0.7071 0.7071 6.2411 112.8818)" class="st1" width="13" height="48.8"/>
			<path class="st2" d="M176.4,240.1v72.4c-3,0-5.6-1.2-7.6-3.1c-1.9-1.9-3.1-4.6-3.1-7.6v-64.5
				C169.5,237.6,173.1,238.6,176.4,240.1z"/>
		</g>
	</g>
</g>
</svg>
