<?xml version="1.0" encoding="utf-8"?>
<!-- Generator: Adobe Illustrator 28.3.0, SVG Export Plug-In . SVG Version: 6.00 Build 0)  -->
<svg version="1.1" id="Calque_1" xmlns="http://www.w3.org/2000/svg" xmlns:xlink="http://www.w3.org/1999/xlink" x="0px" y="0px"
	 viewBox="0 0 512 512" style="enable-background:new 0 0 512 512;" xml:space="preserve">
<style type="text/css">
	.st0{fill:#FFFFFF;}
</style>
<g>
	<g>
		<polygon class="st0" points="406.08,105.92 461,201.07 461,310.93 406.08,406.08 310.93,461 201.07,461 105.92,406.08 51,310.93 
			51,201.07 105.92,105.92 201.07,51 310.93,51 		"/>
	</g>
	<g>
		<path class="st0" d="M443.4,68.6L324.6,0H187.4L68.6,68.6L0,187.4v137.2l68.6,118.8L187.4,512h137.2l118.8-68.6L512,324.6V187.4
			L443.4,68.6z M480.85,316.25L420.6,420.6l-104.35,60.25h-120.5L91.4,420.6L31.15,316.25v-120.5L91.4,91.4l104.35-60.25h120.5
			L420.6,91.4l60.25,104.35V316.25z"/>
	</g>
</g>
</svg>
