<?xml version="1.0" encoding="utf-8"?>
<!-- Generator: Adobe Illustrator 28.2.0, SVG Export Plug-In . SVG Version: 6.00 Build 0)  -->
<svg version="1.1" id="Capa_1" xmlns="http://www.w3.org/2000/svg" xmlns:xlink="http://www.w3.org/1999/xlink" x="0px" y="0px"
	 viewBox="0 0 512 512" style="enable-background:new 0 0 512 512;" xml:space="preserve">
<style type="text/css">
	.st0{fill:#FFFFFF;}
	.st1{fill:#FFFFFF;stroke:#FFFFFF;stroke-width:10;stroke-miterlimit:10;}
</style>
<g>
	<g>
		<path class="st0" d="M257,0C117.1,0,0,113,0,255c0,140.7,116,257,257,257c142.1,0,255-117.3,255-257C512,114.1,398,0,257,0z
			 M257,482.2c-125.2,0-227.2-102-227.2-227.2c0-124.1,102-225.2,227.2-225.2c124.1,0,225.2,101.1,225.2,225.2
			C482.2,380.2,381.1,482.2,257,482.2z"/>
	</g>
</g>
<path class="st1" d="M352.5,331.2c5.9,5.9,5.9,15.3,0,21.2c-5.9,5.9-15.4,5.9-21.2,0l-63.6-63.6c-5.8-5.8-15.2-5.9-21-0.2
	l-65.6,63.6c-0.1,0-0.1,0.1-0.2,0.2c-5.9,5.9-15.3,5.9-21.2,0c-5.9-5.9-5.9-15.4,0-21.2c0.1-0.1,0.1-0.1,0.2-0.2l63.6-65.6
	c5.7-5.9,5.6-15.2-0.2-21l-63.6-63.6c-5.9-5.9-5.9-15.3,0-21.2c5.9-5.9,15.4-5.9,21.2,0c0.1,0.1,0.1,0.1,0.2,0.2l65.6,63.6
	c5.9,5.7,15.2,5.6,21-0.2l63.6-63.6c5.9-5.9,15.3-5.9,21.2,0c5.9,5.9,5.9,15.4,0,21.2l-63.6,63.6c-5.8,5.8-5.9,15.2-0.2,21
	l63.6,65.6C352.3,331.1,352.4,331.2,352.5,331.2z"/>
</svg>
