<?xml version="1.0" encoding="utf-8"?>
<!-- Generator: Adobe Illustrator 28.2.0, SVG Export Plug-In . SVG Version: 6.00 Build 0)  -->
<svg version="1.1" id="Capa_1" xmlns="http://www.w3.org/2000/svg" xmlns:xlink="http://www.w3.org/1999/xlink" x="0px" y="0px"
	 viewBox="0 0 512 512" style="enable-background:new 0 0 512 512;" xml:space="preserve">
<style type="text/css">
	.st0{fill:#FFFFFF;}
</style>
<g>
	<path class="st0" d="M241,336.3v16.1c0.7,19.9,29.3,19.9,30,0v-16.1C270.3,316.5,241.7,316.5,241,336.3z"/>
	<path class="st0" d="M194.3,329.7c-5.9-5.9-15.4-5.9-21.2,0c-5.9,5.9-5.9,15.4,0,21.2l8,8c5.9,5.9,15.4,5.8,21.2,0
		c5.9-5.9,5.9-15.4,0-21.2L194.3,329.7z"/>
	<path class="st0" d="M317.7,329.7l-8,8c-13.5,14.6,6.7,34.7,21.2,21.2l8-8C352.4,336.4,332.3,316.2,317.7,329.7z"/>
	<path class="st0" d="M497,32.1h-66.4c-8.3,0-15,6.7-15,15v224.9c0,8.3,6.7,15,15,15H497c8.3,0,15-6.7,15-15V47.1
		C512,38.8,505.3,32.1,497,32.1L497,32.1z"/>
	<path class="st0" d="M119.2,207.8h44.5c32.6-1.2,32.6-48,0-49.3h-44.4C86.5,159.8,86.5,206.6,119.2,207.8z"/>
	<path class="st0" d="M188.2,262.4c0-13.6-11.1-24.6-24.6-24.6h-44.4c-32.6,1.2-32.6,48,0,49.3h44.4
		C177.2,287.1,188.2,276,188.2,262.4z"/>
	<path class="st0" d="M119.2,128.5h35.3c-3.8-7.5-5.8-15.9-5.8-24.6V79.3h-29.4C86.5,80.5,86.5,127.3,119.2,128.5L119.2,128.5z"/>
	<path class="st0" d="M119.2,49.3h29.5V24.6c0-8.7,2-17.1,5.8-24.6h-35.3C86.5,1.3,86.6,48.1,119.2,49.3L119.2,49.3z"/>
	<path class="st0" d="M203.2,128.5c24.5,0,44.4-19.9,44.4-44.4V64.7c0.6-20.2,29.1-20.5,30-0.4v59.4c0,35.3,28.6,64.1,63.9,64.3
		c8,0,14.8,6.1,15.3,14c0.5,8.7-6.4,16-15,16c-45.6,0-83.8-32.6-92.4-75.7c-10.5,8.4-23.4,14-37.5,15.7
		c11.4,20.6,6.2,49.4-10.9,64.8c17,15.2,22.3,43.7,11.2,64.3h142.3c2.3,0,4.6-0.5,6.7-1.6l24.2-12.1c0-0.4,0-0.9,0-1.3V79.3h-4
		c-4.7,0-9.2-2.2-12-6l-35.7-47.6C321.9,9.6,302.6,0,282.5,0h-79.3c-13.5,0-24.6,10.9-24.6,24.6v79.3
		C178.6,117.6,189.8,128.5,203.2,128.5L203.2,128.5z"/>
	<path class="st0" d="M17.1,366.5L0.5,428.5c-2.1,8,2.6,16.2,10.6,18.4l125.2,33.5l24.4-91.1L35.5,355.9
		C27.5,353.7,19.3,358.5,17.1,366.5L17.1,366.5z"/>
	<path class="st0" d="M494.9,366.5c-2.1-8-10.4-12.8-18.4-10.6L256,414.9l-66.3-17.8l-24.4,91.1l86.8,23.3c2.5,0.7,5.2,0.7,7.8,0
		l241-64.6c8-2.1,12.8-10.4,10.6-18.4L494.9,366.5z"/>
</g>
</svg>
