<?xml version="1.0" encoding="utf-8"?>
<!-- Generator: Adobe Illustrator 28.1.0, SVG Export Plug-In . SVG Version: 6.00 Build 0)  -->
<svg version="1.1" id="Calque_1" xmlns="http://www.w3.org/2000/svg" xmlns:xlink="http://www.w3.org/1999/xlink" x="0px" y="0px"
	 viewBox="0 0 512 512" style="enable-background:new 0 0 512 512;" xml:space="preserve">
<style type="text/css">
	.st0{fill:#FFFFFF;}
</style>
<g>
	<path class="st0" d="M241.2,15.3c64.34,63.92,128.68,127.84,193.33,192.06c-1.29,0.81-2.25,1.54-3.31,2.07
		c-30.8,15.43-61.63,30.8-92.39,46.3c-2.82,1.42-4.55,1.34-6.89-1.03c-19.83-20.05-39.84-39.91-59.68-59.95
		c-1.53-1.55-2.77-3.88-3.14-6.03c-8.09-47.62-16.04-95.27-24.01-142.91c-1.68-10.06-3.36-20.12-5.04-30.18
		C240.45,15.53,240.82,15.41,241.2,15.3z"/>
	<path class="st0" d="M271.92,496.7c-64.41-63.98-128.81-127.96-193.55-192.27c1.53-0.87,2.69-1.61,3.91-2.22
		c30.65-15.35,61.32-30.65,91.93-46.09c2.85-1.44,4.54-1.27,6.86,1.08c19.83,20.04,39.84,39.9,59.67,59.94
		c1.53,1.54,2.72,3.9,3.09,6.05c8.73,51.5,17.32,103.01,25.94,154.53c1.03,6.16,2.05,12.32,3.08,18.48
		C272.53,496.36,272.23,496.53,271.92,496.7z"/>
	<path class="st0" d="M67.16,277.86c48.43-86.75,96.18-172.28,144.6-259c2.11,12.38,4.02,23.44,5.88,34.51
		c7.46,44.38,14.87,88.78,22.41,133.15c0.54,3.17,0.31,5.02-3,6.67c-55.36,27.52-110.65,55.2-165.95,82.84
		C70.26,276.45,69.4,276.82,67.16,277.86z"/>
	<path class="st0" d="M444.84,235.67c-47.67,85.39-95.34,170.77-143.66,257.34c-2.11-12.39-4.02-23.46-5.88-34.54
		c-7.46-44.39-14.9-88.79-22.39-133.17c-0.47-2.8-0.68-4.73,2.64-6.38c55.36-27.52,110.64-55.22,165.94-82.87
		c0.83-0.41,1.7-0.73,2.56-1.08C444.3,235.2,444.57,235.44,444.84,235.67z"/>
	<path class="st0" d="M205.31,240.71c8.78-4.41,17.46-8.77,26.14-13.12c6.46-3.24,12.88-6.58,19.46-9.57
		c1.27-0.57,3.8-0.31,4.73,0.61c17.15,16.91,34.14,33.98,51.15,51.03c0.3,0.3,0.45,0.75,0.9,1.52c-7.67,3.84-15.22,7.62-22.78,11.4
		c-7.45,3.73-14.84,7.58-22.4,11.07c-1.41,0.65-4.19,0.53-5.16-0.43c-17.17-16.89-34.15-33.96-51.17-51.01
		C205.88,241.91,205.74,241.45,205.31,240.71z"/>
</g>
</svg>
