<?xml version="1.0" encoding="utf-8"?>
<!-- Generator: Adobe Illustrator 28.2.0, SVG Export Plug-In . SVG Version: 6.00 Build 0)  -->
<svg version="1.1" id="Calque_1" xmlns="http://www.w3.org/2000/svg" xmlns:xlink="http://www.w3.org/1999/xlink" x="0px" y="0px"
	 viewBox="0 0 512 512" style="enable-background:new 0 0 512 512;" xml:space="preserve">
<style type="text/css">
	.st0{fill:#FFFFFF;}
</style>
<g id="Layer_33">
	<path class="st0" d="M226.9,138.9v234.2c0,17.6-19.5,31.9-43.6,31.9h-43.6c-24.2,0-43.7-14.3-43.7-31.9V138.9
		c0-17.6,19.5-31.9,43.6-31.9h43.6C207.4,107,226.9,121.3,226.9,138.9z M372.4,107h-43.6c-24.1,0-43.6,14.3-43.6,31.9v234.2
		c0,17.6,19.5,31.9,43.6,31.9h43.6c24.1,0,43.6-14.3,43.6-31.9V138.9C416,121.3,396.5,107,372.4,107z"/>
</g>
</svg>
