<?xml version="1.0" encoding="utf-8"?>
<!-- Generator: Adobe Illustrator 28.1.0, SVG Export Plug-In . SVG Version: 6.00 Build 0)  -->
<svg version="1.1" id="Capa_1" xmlns="http://www.w3.org/2000/svg" xmlns:xlink="http://www.w3.org/1999/xlink" x="0px" y="0px"
	 viewBox="0 0 537.95 537.95" style="enable-background:new 0 0 537.95 537.95;" xml:space="preserve">
<style type="text/css">
	.st0{fill:#FFFFFF;}
</style>
<g>
	<path class="st0" d="M268.97,0C120.41,0,0,120.41,0,268.97s120.41,268.97,268.97,268.97s268.97-120.33,268.97-268.97
		C537.95,120.33,417.54,0,268.97,0z M394.51,286.03c0,11.86-9.71,21.5-21.5,21.5h-64.57v64.57c0,11.86-9.71,21.5-21.5,21.5h-35.88
		c-11.86,0-21.5-9.71-21.5-21.5v-64.57h-64.57c-11.86,0-21.5-9.71-21.5-21.5v-35.88c0-11.86,9.71-21.5,21.5-21.5h64.57v-64.57
		c0-11.86,9.71-21.5,21.5-21.5h35.88c11.86,0,21.5,9.71,21.5,21.5v64.57h64.57c11.86,0,21.5,9.72,21.5,21.5L394.51,286.03
		L394.51,286.03z"/>
</g>
</svg>
