<?xml version="1.0" encoding="utf-8"?>
<!-- Generator: Adobe Illustrator 28.1.0, SVG Export Plug-In . SVG Version: 6.00 Build 0)  -->
<svg version="1.1" id="Capa_1" xmlns="http://www.w3.org/2000/svg" xmlns:xlink="http://www.w3.org/1999/xlink" x="0px" y="0px"
	 viewBox="0 0 512 512" style="enable-background:new 0 0 512 512;" xml:space="preserve">
<style type="text/css">
	.st0{fill:#FFFFFF;}
</style>
<g>
	<path class="st0" d="M497,96.4H142.47V63.2c0-35.42-28.85-63.2-63.2-63.2H15C6.72,0,0,6.72,0,15s6.72,15,15,15h64.27
		c17.77,0,33.2,14.36,33.2,33.2v339.09c8.71-6.84,18.9-11.87,30-14.53v-36.43h290.27c43.78,0,79.27-35.49,79.27-79.27V111.4
		C512,103.12,505.28,96.4,497,96.4L497,96.4z"/>
	<path class="st0" d="M160.67,415.6c-26.58,0-48.2,21.62-48.2,48.2s21.62,48.2,48.2,48.2c26.58,0,48.2-21.62,48.2-48.2
		C208.87,437.22,187.25,415.6,160.67,415.6L160.67,415.6z"/>
	<path class="st0" d="M238.87,463.8h98.53c0-10.62,2.14-20.76,5.99-30H232.87C236.73,443.04,238.87,453.18,238.87,463.8
		L238.87,463.8z"/>
	<path class="st0" d="M415.6,415.6c-26.58,0-48.2,21.62-48.2,48.2s21.62,48.2,48.2,48.2s48.2-21.62,48.2-48.2
		C463.8,437.22,442.18,415.6,415.6,415.6L415.6,415.6z"/>
</g>
</svg>
