<?xml version="1.0" encoding="utf-8"?>
<!-- Generator: Adobe Illustrator 28.3.0, SVG Export Plug-In . SVG Version: 6.00 Build 0)  -->
<svg version="1.1" xmlns="http://www.w3.org/2000/svg" xmlns:xlink="http://www.w3.org/1999/xlink" x="0px" y="0px"
	 viewBox="0 0 512 512" style="enable-background:new 0 0 512 512;" xml:space="preserve">
<style type="text/css">
	.st0{display:none;}
	.st1{display:inline;fill:#F3EEF5;}
	.st2{display:inline;}
	.st3{fill:#FFFFFF;}
</style>
<g id="Calque_1" class="st0">
	<g>
		<path class="st1" d="M443,69L324.5,0.5h-137L69,69L0.5,187.5v137L69,443l118.5,68.5h136.9L443,443l68.5-118.5V187.6L443,69z
			 M481.4,316.3l-0.1,0.1l-60.2,104.4l-0.1,0.1l-0.1,0.1l-104.5,60.3l-0.1,0.1H195.6l-0.2-0.1L91.1,421.1L91,421v-0.1L30.7,316.4
			l-0.1-0.1V195.6l0.1-0.1L91,91.1V91h0.2l104.4-60.3l0.1-0.1h120.7l0.1,0.1l104.4,60.2L421,91v0.1l60.3,104.5l0.1,0.1V316.3z"/>
		<polygon class="st1" points="460.5,201.2 460.5,310.8 405.7,405.7 310.8,460.5 201.2,460.5 106.3,405.7 51.5,310.8 51.5,201.2 
			106.3,106.3 201.2,51.5 310.8,51.5 405.7,106.3 		"/>
	</g>
	<g class="st2">
		<path class="st3" d="M193.8,488L86.2,425.8L24,318.2V193.8L86.2,86.2L193.8,24h124.4l107.6,62.2L488,193.9v124.3l-62.2,107.6
			L318.1,488H193.8z M99.6,410l1.2,1.3l0.5,0.5l96.9,55.9l1.1,0.6h114.1l0.9-0.9l96.5-55.7l0.9-0.9l55.6-96.4l0.9-0.9V198.6
			l-0.9-0.9l-54.9-95.1V102l-1.2-1.3l-0.5-0.5l-96.4-55.6l-0.9-0.9H198.6l-0.9,0.9l-95,54.9h-3.1v3l-54.9,95.1l-0.9,0.9v114.8
			l0.9,0.9l54.9,95.1V410z"/>
	</g>
	<g class="st2">
		<path class="st3" d="M198.3,471.3l-99.9-57.7l-57.7-99.9V198.3l57.7-99.9l99.9-57.7h115.5l99.9,57.7l57.7,100v115.4l-57.7,99.9
			l-100,57.7H198.3z M110.4,399.2l1.2,1.3l0.5,0.5l90.1,52l1.1,0.6h106.2l0.9-0.9l89.7-51.8l0.9-0.9l51.7-89.6l0.9-0.9V202.6
			l-0.9-0.9l-51-88.3v-0.6l-1.2-1.3l-0.5-0.5l-89.6-51.7l-0.9-0.9H202.6l-0.9,0.9l-88.2,51h-3.1v3l-51,88.2l-0.9,0.9v106.9l0.9,0.9
			l51,88.3V399.2z"/>
	</g>
	<g class="st2">
		<path class="st3" d="M201.3,460.2l-94.7-54.7l-54.7-94.7V201.3l54.7-94.7l94.7-54.7h109.5l94.7,54.7l54.7,94.8v109.4l-54.7,94.7
			l-94.8,54.7H201.3z M117.5,392l1.2,1.3l0.5,0.5l85.6,49.4l1.1,0.6h100.9l0.9-0.9l85.2-49.1l0.9-0.9l49.1-85.1l0.9-0.9V205.2
			l-0.9-0.9l-48.3-83.8V120l-1.2-1.3l-0.5-0.5l-85.1-49.1l-0.9-0.9H205.2l-0.9,0.9l-83.7,48.3h-3.1v3l-48.3,83.7l-0.9,0.9v101.7
			l0.9,0.9l48.3,83.8V392z"/>
	</g>
</g>
<g id="Calque_2">
	<g>
		<path class="st3" d="M189.2,505L73.8,438.2L7,322.8V189.2L73.8,73.8L189.2,7h133.5l115.5,66.8L505,189.3v133.4l-66.8,115.5
			L322.7,505H189.2z M83.7,424.2l2.8,2.8L192,487.9l1.9,0.9h125.5l1.5-1.5l104.7-60.4l1.5-1.5l60.3-104.6l1.5-1.5V192.7l-1.5-1.5
			l-59-102.3v-1.1l-2.8-2.8L320.9,24.7l-1.5-1.5H192.7l-1.5,1.5L89,83.7h-5.3v5.2l-59,102.2l-1.5,1.5v126.7l1.5,1.5l59,102.3V424.2z
			"/>
	</g>
</g>
</svg>
