<?xml version="1.0" encoding="utf-8"?>
<!-- Generator: Adobe Illustrator 28.2.0, SVG Export Plug-In . SVG Version: 6.00 Build 0)  -->
<svg version="1.1" id="Calque_1" xmlns="http://www.w3.org/2000/svg" xmlns:xlink="http://www.w3.org/1999/xlink" x="0px" y="0px"
	 viewBox="0 0 512 512" style="enable-background:new 0 0 512 512;" xml:space="preserve">
<style type="text/css">
	.st0{fill:#FFFFFF;}
</style>
<g>
	<path class="st0" d="M274.82,129.5c27.34-22.97,45.61-74.71,34.37-76.97c-14.93-3.01-47.37,10.18-63.05,12.51
		c-22.24,2.68-46.46-24.12-60.05-9.18c-11.06,12.14,7.92,56.31,37.61,75.55c-88.58,43.54-213.1,262.1,4.12,277.97
		C528.38,431.32,377.88,171.93,274.82,129.5z M309.83,220.69l-24.7,42.68l-18.25-42.68H309.83z M256,220.69l20.52,49.11h-41.05
		L256,220.69z M245.13,220.69l-18.25,42.68l-24.74-42.68H245.13z M193.13,225.98l25.39,43.81h-49.51L193.13,225.98z M169.96,280.22
		h53.66l20.87,73.4L169.96,280.22z M256,353.63l-21.51-73.4h43.03L256,353.63z M267.52,353.63l20.87-73.4h53.66L267.52,353.63z
		 M293.48,269.8l25.39-43.81L343,269.8H293.48z"/>
</g>
<g>
	<path class="st0" d="M469.35,322.43c20.09-7.45,40.87-32.98,34.98-36.53c-7.83-4.72-28.82-3.83-38.15-5.68
		c-13.11-2.98-21.37-23.02-32.07-17.32c-8.7,4.62-6.91,33.41,5.97,50.28c-58.84,6.69-173.37,104.98-53.87,157.86
		C551.56,544.2,518.98,367.24,469.35,322.43z M470.68,381.02l-22.58,19.12l-1.68-27.8L470.68,381.02z M440.28,370.14l1.67,31.89
		l-23.19-8.3L440.28,370.14z M434.13,367.94l-18.94,20.42l-5.34-29.11L434.13,367.94z M403.69,360.42l5.48,29.88l-27.97-10.01
		L403.69,360.42z M379.63,386.37l30.31,10.85l-3.05,45.69L379.63,386.37z M413.4,445.24l2.69-45.82l24.31,8.7L413.4,445.24z
		 M419.91,447.57l26.63-37.25l30.31,10.85L419.91,447.57z M451.52,405.46l23.2-19.62l4.77,29.63L451.52,405.46z"/>
</g>
<g>
	<path class="st0" d="M125.79,471.04c119.5-52.88,4.97-151.17-53.87-157.86c12.88-16.87,14.68-45.66,5.97-50.28
		c-10.7-5.69-18.96,14.34-32.07,17.32c-9.33,1.86-30.32,0.96-38.15,5.68c-5.89,3.55,14.89,29.09,34.98,36.53
		C-6.98,367.24-39.56,544.2,125.79,471.04z M65.58,372.34l-1.68,27.8l-22.58-19.12L65.58,372.34z M93.25,393.73l-23.19,8.3
		l1.67-31.89L93.25,393.73z M102.15,359.25l-5.34,29.11l-18.94-20.42L102.15,359.25z M130.79,380.29l-27.97,10.01l5.48-29.88
		L130.79,380.29z M105.11,442.91l-3.05-45.69l30.31-10.85L105.11,442.91z M71.61,408.12l24.31-8.7l2.69,45.82L71.61,408.12z
		 M35.15,421.17l30.31-10.85l26.63,37.25L35.15,421.17z M32.51,415.47l4.77-29.63l23.2,19.62L32.51,415.47z"/>
</g>
</svg>
