<?xml version="1.0" encoding="utf-8"?>
<!-- Generator: Adobe Illustrator 28.2.0, SVG Export Plug-In . SVG Version: 6.00 Build 0)  -->
<svg version="1.1" id="Calque_1" xmlns="http://www.w3.org/2000/svg" xmlns:xlink="http://www.w3.org/1999/xlink" x="0px" y="0px"
	 viewBox="0 0 512 512" style="enable-background:new 0 0 512 512;" xml:space="preserve">
<style type="text/css">
	.st0{fill:#FFFFFF;}
</style>
<g>
	<path class="st0" d="M324.18,241.41l-43.93,154.53l156.89-154.53H324.18z"/>
	<path class="st0" d="M187.82,241.41H74.85l156.89,154.53L187.82,241.41z"/>
	<path class="st0" d="M317.31,205.92l52.01-89.86h-90.43L317.31,205.92z"/>
	<path class="st0" d="M194.69,205.92l38.42-89.86h-90.5L194.69,205.92z"/>
	<path class="st0" d="M334.91,219.44h104.24l-50.8-92.22L334.91,219.44z"/>
	<path class="st0" d="M177.09,219.44l-53.44-92.22l-50.8,92.22H177.09z"/>
	<path class="st0" d="M301.29,241.41h-90.57L256,395.94L301.29,241.41z"/>
	<path class="st0" d="M256,116.06l-43.21,103.38h86.42L256,116.06z"/>
</g>
<g>
	<path class="st0" d="M449.51,398.26l-57.91,32.28l90.88,0.69L449.51,398.26z"/>
	<path class="st0" d="M409.71,358.47l-32.97-32.97l0.69,90.88L409.71,358.47z"/>
	<path class="st0" d="M457.86,385.9l41.4-11.04l-26.39-26.39L457.86,385.9z"/>
	<path class="st0" d="M422.07,350.12l37.43-15.01l-26.4-26.41L422.07,350.12z"/>
	<path class="st0" d="M459.05,394.98l30.42,30.42l12.09-41.73L459.05,394.98z"/>
	<path class="st0" d="M412.99,348.93l11.32-42.51l-41.73,12.09L412.99,348.93z"/>
	<path class="st0" d="M442.82,391.58l-26.43-26.43l-31.88,58.31L442.82,391.58z"/>
	<path class="st0" d="M466.19,341.79l-42.78,17.56l25.22,25.22L466.19,341.79z"/>
</g>
<g>
	<path class="st0" d="M29.53,431.23l90.88-0.69L62.5,398.26L29.53,431.23z"/>
	<path class="st0" d="M134.56,416.38l0.69-90.88l-32.97,32.97L134.56,416.38z"/>
	<path class="st0" d="M39.13,348.47l-26.39,26.39l41.4,11.04L39.13,348.47z"/>
	<path class="st0" d="M78.9,308.7l-26.41,26.41l37.43,15.01L78.9,308.7z"/>
	<path class="st0" d="M10.45,383.67l12.09,41.73l30.42-30.42L10.45,383.67z"/>
	<path class="st0" d="M129.43,318.51L87.7,306.42l11.32,42.51L129.43,318.51z"/>
	<path class="st0" d="M127.49,423.46l-31.88-58.31l-26.43,26.43L127.49,423.46z"/>
	<path class="st0" d="M63.37,384.57l25.22-25.22l-42.78-17.56L63.37,384.57z"/>
</g>
</svg>
