<?xml version="1.0" encoding="utf-8"?>
<!-- Generator: Adobe Illustrator 28.2.0, SVG Export Plug-In . SVG Version: 6.00 Build 0)  -->
<svg version="1.1" id="Calque_1" xmlns="http://www.w3.org/2000/svg" xmlns:xlink="http://www.w3.org/1999/xlink" x="0px" y="0px"
	 viewBox="0 0 512 512" style="enable-background:new 0 0 512 512;" xml:space="preserve">
<style type="text/css">
	.st0{fill:#FFFFFF;}
</style>
<g>
	<g id="bag">
		<path class="st0" d="M455.04,454.03l-16.27-290.56c-0.58-9.66-8.6-17.2-18.29-17.18h-73.14V91.43C347.34,40.93,306.4,0,255.91,0
			c-50.5,0-91.43,40.93-91.43,91.43v54.86H91.34c-9.69-0.02-17.71,7.52-18.29,17.18L56.96,454.03
			c-1.72,30.25,21.41,56.17,51.66,57.88c1.07,0.06,2.13,0.09,3.2,0.09h288.36c30.3,0.05,54.9-24.47,54.95-54.77
			C455.13,456.16,455.1,455.1,455.04,454.03z M348.06,215.32l-42.25,72.99l-31.21-72.99H348.06z M291.1,299.3h-70.2l35.1-83.98
			L291.1,299.3z M201.05,91.43c0-30.3,24.56-54.86,54.86-54.86s54.86,24.56,54.86,54.86v54.86H201.05V91.43z M237.4,215.32
			l-31.21,72.99l-42.31-72.99H237.4z M107.22,299.3l41.26-74.92l43.42,74.92H107.22z M108.84,317.14h91.77l35.69,125.54
			L108.84,317.14z M219.21,317.14h73.58L256,442.68L219.21,317.14z M275.7,442.68l35.69-125.54h91.77L275.7,442.68z M320.1,299.3
			l43.42-74.92l41.26,74.92H320.1z"/>
	</g>
</g>
</svg>
