<?xml version="1.0" encoding="utf-8"?>
<!-- Generator: Adobe Illustrator 28.2.0, SVG Export Plug-In . SVG Version: 6.00 Build 0)  -->
<svg version="1.1" id="Calque_1" xmlns="http://www.w3.org/2000/svg" xmlns:xlink="http://www.w3.org/1999/xlink" x="0px" y="0px"
	 viewBox="0 0 512 512" style="enable-background:new 0 0 512 512;" xml:space="preserve">
<style type="text/css">
	.st0{fill:#FFFFFF;}
</style>
<path class="st0" d="M493.71,36.57h-73.14c-10.1,0-18.28,8.19-18.28,18.29v18.28H109.71V54.86c0-10.1-8.18-18.29-18.28-18.29H18.29
	C8.19,36.57,0,44.76,0,54.86v219.43c0,10.09,8.19,18.28,18.29,18.28v164.57c0,10.1,8.18,18.29,18.28,18.29h438.86
	c10.1,0,18.28-8.19,18.28-18.29V292.57c10.1,0,18.29-8.19,18.29-18.28V54.86C512,44.76,503.81,36.57,493.71,36.57z M36.57,73.14
	h36.57V256H36.57V73.14z M91.43,438.86H54.86V292.57h36.57V438.86z M322.9,173.39l-30.71,53.04l-22.67-53.04L322.9,173.39
	L322.9,173.39z M281.5,234.43h-51l25.5-61.04L281.5,234.43z M242.49,173.39l-22.68,53.04l-30.75-53.04L242.49,173.39L242.49,173.39z
	 M177.87,179.97l31.55,54.46h-61.53L177.87,179.97z M149.07,247.37h66.68l25.93,91.24L149.07,247.37z M229.27,247.37h53.46
	L256,338.61L229.27,247.37z M270.32,338.61l25.93-91.24h66.69L270.32,338.61z M302.58,234.43l31.55-54.46l29.98,54.46H302.58z
	 M457.14,438.86h-36.57V292.57h36.57V438.86z M475.43,256h-36.57V73.14h36.57V256z"/>
</svg>
