<?xml version="1.0" encoding="utf-8"?>
<!-- Generator: Adobe Illustrator 28.2.0, SVG Export Plug-In . SVG Version: 6.00 Build 0)  -->
<svg version="1.1" id="Calque_1" xmlns="http://www.w3.org/2000/svg" xmlns:xlink="http://www.w3.org/1999/xlink" x="0px" y="0px"
	 viewBox="0 0 512 512" style="enable-background:new 0 0 512 512;" xml:space="preserve">
<style type="text/css">
	.st0{fill:#FFFFFF;}
</style>
<g>
	<path class="st0" d="M278.26,135.98c32.33-27.16,53.93-88.34,40.64-91.02C301.24,41.4,262.88,57,244.34,59.75
		c-26.3,3.17-54.94-28.52-71.01-10.85c-13.08,14.36,9.37,66.59,44.48,89.34c-104.75,51.49-251.99,309.94,4.87,328.7
		C578.09,492.88,400.12,186.15,278.26,135.98z M319.65,243.81l-29.21,50.47l-21.58-50.47H319.65z M256,243.81l24.27,58.07h-48.54
		L256,243.81z M243.14,243.81l-21.58,50.47l-29.25-50.47H243.14z M181.66,250.07l30.02,51.81h-58.55L181.66,250.07z M154.25,314.21
		h63.45l24.68,86.8L154.25,314.21z M256,401.01l-25.44-86.8h50.88L256,401.01z M269.62,401.01l24.68-86.8h63.45L269.62,401.01z
		 M300.32,301.88l30.02-51.81l28.53,51.81H300.32z"/>
</g>
</svg>
